<svg id="Calque_1" data-name="Calque 1" xmlns="http://www.w3.org/2000/svg" xmlns:xlink="http://www.w3.org/1999/xlink" viewBox="0 0 271.3 56.13"><defs><style>.cls-1{fill:url(#linear-gradient);}.cls-2{fill:url(#linear-gradient-2);}.cls-3{fill:url(#linear-gradient-3);}.cls-4{fill:url(#linear-gradient-4);}.cls-5{fill:url(#linear-gradient-5);}.cls-6{fill:url(#linear-gradient-6);}.cls-7{fill:#fff;}</style><linearGradient id="linear-gradient" x1="28.06" y1="-1.38" x2="28.06" y2="57.87" gradientUnits="userSpaceOnUse"><stop offset="0" stop-color="#00774a"/><stop offset="0.6" stop-color="#8ac9ad"/><stop offset="1" stop-color="#00965f"/></linearGradient><linearGradient id="linear-gradient-2" x1="27.97" y1="-13.94" x2="27.97" y2="52.64" gradientUnits="userSpaceOnUse"><stop offset="0" stop-color="#00965f"/><stop offset="0.3" stop-color="#8ac9ad"/><stop offset="0.55" stop-color="#00965f"/><stop offset="0.84" stop-color="#00774a"/><stop offset="0.89" stop-color="#008053"/><stop offset="0.98" stop-color="#00986a"/><stop offset="1" stop-color="#009e70"/></linearGradient><linearGradient id="linear-gradient-3" x1="38.64" y1="48.96" x2="38.64" y2="5.88" gradientUnits="userSpaceOnUse"><stop offset="0" stop-color="#00a87c"/><stop offset="1" stop-color="#00965f"/></linearGradient><linearGradient id="linear-gradient-4" x1="11.91" y1="48.96" x2="11.91" y2="5.86" xlink:href="#linear-gradient-3"/><linearGradient id="linear-gradient-5" x1="20.23" y1="48.95" x2="20.23" y2="5.88" xlink:href="#linear-gradient-3"/><linearGradient id="linear-gradient-6" x1="27.43" y1="48.96" x2="27.43" y2="5.87" xlink:href="#linear-gradient-3"/></defs><title>Plan de travail 7</title><rect class="cls-1" width="56.13" height="56.13"/><path class="cls-2" d="M54.39,28.39c0,11.72.54,23.71.54,23.71a2,2,0,0,1-2,2.21H4.38c-1.09,0-1.84-1-2-2.21A211,211,0,0,1,1,26.21c0-15.65,1.4-23,1.4-23C2.58,1.91,3.3,1,4.38,1H53a2.09,2.09,0,0,1,2,2.21S54.39,16.67,54.39,28.39Z"/><path class="cls-3" d="M43.58,15.16c-3.47,2-4.53,2.2-8.3,4.46l.18-.42a38.64,38.64,0,0,0,4.14-5,84.71,84.71,0,0,0-12.13,1.4h0l.19-.39a51.57,51.57,0,0,1,12.45-3.58c-.76-1.06-6.91-4.39-8.45-5h0l.18-.39a40.33,40.33,0,0,1,13.55,4.36A21.53,21.53,0,0,1,49.81,10s-.31,1.27-2.61,2.85h0c.57,1.53-.8,10-1.93,12.24h0C45.21,21.56,44.9,17.1,43.58,15.16Z"/><path class="cls-4" d="M18.22,45.5l.18-.39c-1.84-.72-3.69-1.28-5.18-2.69h0A15.23,15.23,0,0,1,15.1,38.8h0l.18-.4c-1.58.24-3,.82-4.39,1.09h0c-1.08-1.9-1.5-4.5-2-7l-.18.39h0a23.75,23.75,0,0,0,0,7.09h0a26.35,26.35,0,0,0-3.06.75l-.18.39h0a39.19,39.19,0,0,0,4.31,2.37h0A14.71,14.71,0,0,0,13,48.16h0l.18-.39a8.4,8.4,0,0,1-.48-3.16h0A20.59,20.59,0,0,0,18.22,45.5Z"/><path class="cls-5" d="M23.34,17.31A20.11,20.11,0,0,0,22,20.37h-.14a30.83,30.83,0,0,1,9.43,2.94l-.18.39h0a30.31,30.31,0,0,0-8.52-.55h0a6.13,6.13,0,0,0-2,.37h0a32.55,32.55,0,0,0-1.75,6.81l-.18.39h0c-.82-2-2-5.91-2-5.91h0c-2.26,1.21-7.47,6.1-7.47,6.1h0A30.13,30.13,0,0,1,15,22.56h0c-1-1-3.62-1.52-5.53-1.6h0l.18-.39A29.53,29.53,0,0,1,14.93,20h0a28,28,0,0,1,3.15.05h0A15.66,15.66,0,0,1,23.34,17.31Z"/><path class="cls-6" d="M28.84,41.94c-.91,1.23-1.68,2.2-2.68,3.32h0a20.22,20.22,0,0,1-4.61.27l-.18.39h0A11.83,11.83,0,0,0,24.48,47h0a23.7,23.7,0,0,1-2.85,1.95l-.18.39h0a22.26,22.26,0,0,0,5.78-2.17h0A10.26,10.26,0,0,0,29.57,47h0l.18-.39c-.11-.4-.46-.64-.57-1.19h0a40.69,40.69,0,0,0,4.13-3.75h0l.19-.39A35.11,35.11,0,0,1,29,44.22h0C28.93,43.45,28.88,42.8,28.84,41.94Z"/><path class="cls-7" d="M43.76,14.76c-3.46,2-4.52,2.21-8.29,4.46a38.45,38.45,0,0,0,4.31-5.38,83.55,83.55,0,0,0-12.12,1.4h0a48.24,48.24,0,0,1,12.64-4c-.76-1.05-6.92-4.39-8.45-5h0c4.88.38,10.84,2.2,13.73,4A22.59,22.59,0,0,1,50,9.64h0a5.85,5.85,0,0,1-2.64,2.84h0c.58,1.54-.8,10-1.93,12.24h0C45.4,21.17,45.09,16.7,43.76,14.76Z"/><path class="cls-7" d="M18.4,45.11a13.77,13.77,0,0,1-5-3.07h0a15.56,15.56,0,0,1,1.89-3.63h0c-1.62.24-2.81.42-4.21.69h0a21.58,21.58,0,0,1-2.23-6.57h0a23.83,23.83,0,0,0,0,7.1h0a20.88,20.88,0,0,0-3.24,1.14h0A40.36,40.36,0,0,0,9.9,43.13h0a14.71,14.71,0,0,0,3.29,4.65h0a8.64,8.64,0,0,1-.3-3.55h0A20.57,20.57,0,0,0,18.4,45.11Z"/><path class="cls-7" d="M23.58,17h0A11.5,11.5,0,0,0,22,20h0a25.53,25.53,0,0,1,9.25,3.33h0a30,30,0,0,0-8.52-.55h0a6.51,6.51,0,0,0-2,.35h0a35.52,35.52,0,0,0-1.94,7.2h0c-.82-2-2-5.91-2-5.91h0c-2.26,1.21-7.47,6.11-7.47,6.11h0a29.75,29.75,0,0,1,5.77-8.34h0c-1-1-3.62-1.52-5.54-1.6h0a21.58,21.58,0,0,1,5.51-1h0a28.75,28.75,0,0,1,3.15.06h0A15.77,15.77,0,0,1,23.58,17Z"/><path class="cls-7" d="M29,41.55a42.16,42.16,0,0,1-2.69,3.32h0a16.5,16.5,0,0,1-4.79.66h0a11.92,11.92,0,0,0,3.11,1.08h0a21.65,21.65,0,0,1-3,2.34h0a22.22,22.22,0,0,0,5.78-2.18h0a10.57,10.57,0,0,0,2.35-.14h0A13.25,13.25,0,0,1,29.36,45h0A39.36,39.36,0,0,0,33.5,41.3h0a27.91,27.91,0,0,1-4.32,2.53h0C29.1,43.06,29.06,42.41,29,41.55Z"/><path d="M70.24,8.54c.12,2,.24,7.2.24,9.09s0,7.54-.31,10l0,.2h9.07c4.46,0,9.17-1.39,9.17-5.35,0-2.48-1.79-4.31-5.15-5.31,2.49-.67,4.15-2.37,4.15-4.31,0-3.23-3.71-4.45-7.2-4.53h-10Zm7,2c3.78,0,5.17.8,5.17,2.86a2.19,2.19,0,0,1-.51,1.46A4.66,4.66,0,0,1,78,16h-.09L76.82,18.8h1.06a6,6,0,0,1,4.83,1.74,2.78,2.78,0,0,1,.65,1.78c0,2.15-1.89,3.26-5.64,3.26-.63,0-1.65,0-2.29,0-.11-2.87-.16-6.76-.16-7.93,0-1.36.09-4.38.16-7A10.25,10.25,0,0,1,77.25,10.52Z"/><path d="M109.33,8.36h-4.41l.18,4.92c.08,2.43.17,4.93.34,7.36h0a14.15,14.15,0,0,0-1.89-3.1c0-.07-4.59-7.12-6.18-9.13l0,0H92.19v.18c.16,2,.23,7.2.23,9.09s0,7.54-.24,10l0,.2h4.56v-.2c-.26-4.76-.26-9.56-.26-14.22h0a6.67,6.67,0,0,0,1.08,2.12c.06.13,7.92,11.57,8.3,12.22l0,.08h3.65v-.2c-.28-2.5-.3-8.31-.3-10s.12-7,.24-9.09l.06-.18Z"/><path d="M114.6,8.54c.18,2,.25,7.2.25,9.09s0,7.54-.27,10v.2H120l0-.2c-.18-1.8-.28-5.24-.3-7.86l1,.05.77,0c7.14,0,10.61-1.89,10.61-5.87,0-4.52-4.87-5.56-8.94-5.65H114.6Zm6.69,2.17c2.55,0,4.32.47,5.16,1.54a2.68,2.68,0,0,1,.6,1.76c0,2.82-3.18,3.43-5.83,3.43l-1.08-.06-.44,0c0-.65,0-1.51,0-2.47,0-1.23,0-2.68.06-4A11.48,11.48,0,0,1,121.3,10.71Z"/><path d="M142.46,8.54c.17,2,.27,7.2.27,9.09s0,7.54-.3,10v.2h5.43l0-.2c-.17-1.8-.27-5.24-.27-7.86l1,.05.79,0C156.46,19.87,160,18,160,14c0-4.52-4.9-5.56-9-5.65h-8.53Zm6.68,2.17c2.55,0,4.32.47,5.18,1.54a2.64,2.64,0,0,1,.59,1.76c0,2.82-3.17,3.43-5.79,3.43L148,17.38l-.45,0c0-.65,0-1.52,0-2.47,0-1.24,0-2.68.05-4A10.79,10.79,0,0,1,149.14,10.71Z"/><path d="M167.23,8.36h-.07l0,.1c-1,2.77-7.52,17-8.55,19.16l-.09.24h4.62l0-.11c.41-1.34,1-2.85,1.55-4.46l3.86-.06,3.19,0,.67,0c.82,2.1,1.45,3.68,1.73,4.48l.05.08h5.36l-8.66-19.5h-3.67Zm1.32,5.75c.43.93,1.55,3.52,2.81,6.61h-.44l-2.37,0-2.87,0C166.71,18.24,167.72,16,168.55,14.1Z"/><path d="M181.73,8.54c.15,2,.23,7.2.23,9.09s0,7.54-.3,10v.2h5.46l0-.2c-.29-2.52-.31-8.31-.31-10,0-1.36,0-4.38.18-6.82.41,0,1-.09,1.47-.09,2.53,0,4.31.47,5.15,1.54a2.62,2.62,0,0,1,.58,1.76c0,2.25-2.1,3.39-4.06,3.5a6,6,0,0,1-1.15-.06l-.38-.06.21.36c1.94,2.83,4.84,7.72,6,10l0,.08h5.83l-.15-.26c-.24-.33-4-5.92-5.65-8.31l-.14-.14c3-.9,4.44-2.57,4.44-5.14,0-4.49-4.87-5.56-9-5.65h-8.5Z"/><path d="M208.42,8.36h-5.2l0,.18c.13,2,.24,7.2.24,9.09,0,1.73,0,7.52-.27,10l0,.2h5.39l0-.2c-.21-2.52-.27-8.31-.27-10,0-1.88.13-7,.27-9.09V8.36Z"/><path d="M213.51,8.54c.16,2,.25,7.2.25,9.09s0,7.54-.27,10l0,.2h9.08c4.44,0,9.17-1.39,9.17-5.35,0-2.48-1.8-4.31-5.18-5.31,2.49-.67,4.17-2.37,4.17-4.31,0-3.23-3.72-4.45-7.18-4.53h-10Zm7,2h0c3.81,0,5.2.8,5.2,2.86a2.14,2.14,0,0,1-.52,1.46c-.69.87-2.15,1.32-3.94,1.21h-.09l-1,2.75h1A6,6,0,0,1,226,20.53a2.67,2.67,0,0,1,.67,1.78c0,2.15-1.9,3.26-5.66,3.26-.6,0-1.62,0-2.26,0-.16-2.87-.16-6.76-.16-7.93,0-1.36,0-4.38.16-7A9.78,9.78,0,0,1,220.51,10.52Z"/><path d="M245.05,8.36H241.4l0,.09c-1.09,3-8,17.92-8.55,19.15l-.1.26h4.65l0-.12c.39-1.34.93-2.84,1.53-4.48l3.84-.06,3.2.05h.68c.84,2.09,1.46,3.69,1.74,4.48l0,.12h5.38l-8.65-19.5Zm-2.24,5.73c.44.91,1.55,3.5,2.81,6.6l-.43,0-2.38,0L240,20.7C241,18.21,242,16,242.81,14.09Z"/><path d="M255.34,13.4c0,3.43,3.43,4.8,6.47,6.07,2.36.95,4.84,1.94,4.84,3.57a1.68,1.68,0,0,1-.38,1.2c-.57.67-1.72,1-3.55.85a16.62,16.62,0,0,1-6.15-1.7l-.9-.43V27.2l.61.15.36.06a23.77,23.77,0,0,0,5.5.8c5.73,0,9.15-2.29,9.15-6.06,0-3.55-3.53-4.93-6.65-6.17-2.3-.93-4.68-1.85-4.68-3.37,0-.44,0-1.72,3-1.72a15.71,15.71,0,0,1,5.52,1.35l1.1.46V8.44l-1.09-.2a24.94,24.94,0,0,0-4.88-.59C258.64,7.65,255.34,10,255.34,13.4Z"/><path d="M77.64,35v1.84H72.43v3.63h5v1.71h-5V46h5.49v1.84H70.34V35Z"/><path d="M82.86,34V45.57a.65.65,0,0,0,.72.74A2.57,2.57,0,0,0,84.83,46L85,47.51a4.47,4.47,0,0,1-2.15.59c-1.72,0-2.15-1.2-2.15-2.49V34.41Z"/><path d="M97.08,35c3.52,0,5.41,1.86,5.41,6.26,0,4.75-2.11,6.63-5.47,6.63H92.73V35ZM94.82,46h2.13c2.09,0,3.38-1,3.38-4.77,0-3.43-1.24-4.44-3.38-4.44H94.82Z"/><path d="M107.36,49.35a2.38,2.38,0,0,1-2.63,2.41,4.37,4.37,0,0,1-2-.5l.33-1.6a3.35,3.35,0,0,0,1.22.31.9.9,0,0,0,1-1V38.08h2.11Zm0-14.75v2.17h-2.11V34.6Z"/><path d="M115.26,40.8c0-.92-.64-1.29-1.51-1.29A1.49,1.49,0,0,0,112.09,41l-1.85-.19c.06-2,1.72-3,3.65-3,2.13,0,3.48,1,3.48,2.78v5.1c0,.46.23.66.56.66a1.77,1.77,0,0,0,1-.39l.13,1.46a2.63,2.63,0,0,1-1.78.66,1.55,1.55,0,0,1-1.72-1.38,4.36,4.36,0,0,1-3.11,1.38,2.43,2.43,0,0,1-2.59-2.62c0-2.48,2.42-3.59,5.39-3.57Zm0,2.63c-1.91-.06-3.33.59-3.33,1.78a1.07,1.07,0,0,0,1.2,1.18,3.07,3.07,0,0,0,2.13-1.07Z"/><path d="M128.18,38.08v1.27l-5,6.87h5.07v1.64h-7.71V46.64l5-6.92h-4.91V38.08Z"/><path d="M135.32,40.8c0-.92-.64-1.29-1.51-1.29A1.49,1.49,0,0,0,132.15,41l-1.86-.19c.06-2,1.72-3,3.65-3,2.13,0,3.48,1,3.48,2.78v5.1c0,.46.23.66.56.66a1.77,1.77,0,0,0,1-.39l.13,1.46a2.63,2.63,0,0,1-1.78.66,1.55,1.55,0,0,1-1.72-1.38,4.36,4.36,0,0,1-3.11,1.38,2.43,2.43,0,0,1-2.59-2.62c0-2.48,2.42-3.59,5.39-3.57Zm0,2.63c-1.91-.06-3.33.59-3.33,1.78a1.07,1.07,0,0,0,1.2,1.18,3.07,3.07,0,0,0,2.13-1.07Z"/><path d="M141.41,34.54v1.9h-1.72v-1.9Zm1.72,3.54v9.78H141V38.08Zm1.35-3.54v1.9h-1.72v-1.9Z"/><path d="M148.31,38.08V39.2A3.52,3.52,0,0,1,151,37.84c1.53,0,1.87,1.36,1.87,2.8L151,40.8c0-.59-.08-1-.66-1a3.08,3.08,0,0,0-1.72,1v7h-2.11V38.08Z"/></svg>